<svg xmlns="http://www.w3.org/2000/svg" version="1.1" xmlns:xlink="http://www.w3.org/1999/xlink" xmlns:svgjs="http://svgjs.dev/svgjs" width="2000" height="676" viewBox="0 0 2000 676"><g transform="matrix(1,0,0,1,-1.2121212121212466,-0.8464054092249285)"><svg viewBox="0 0 396 134" data-background-color="#ffffff" preserveAspectRatio="xMidYMid meet" height="676" width="2000" xmlns="http://www.w3.org/2000/svg" xmlns:xlink="http://www.w3.org/1999/xlink"><g id="tight-bounds" transform="matrix(1,0,0,1,0.2400000000000091,0.1677785870357127)"><svg viewBox="0 0 395.52 133.6644428259286" height="133.6644428259286" width="395.52"><g><svg viewBox="0 0 395.52 133.6644428259286" height="133.6644428259286" width="395.52"><g><svg viewBox="0 0 395.52 133.6644428259286" height="133.6644428259286" width="395.52"><g><svg viewBox="0 0 395.52 133.6644428259286" height="133.6644428259286" width="395.52"><g id="textblocktransform"><svg viewBox="0 0 395.52 133.6644428259286" height="133.6644428259286" width="395.52" id="textblock"><g><svg viewBox="0 0 395.52 133.6644428259286" height="133.6644428259286" width="395.52"><g transform="matrix(1,0,0,1,0,0)"><svg width="395.52" viewBox="3 -35 137.29 46.4" height="133.6644428259286" data-palette-color="#affc41"><g class="wordmark-text-0" data-fill-palette-color="primary" id="text-0"><path d="M3-17.5L3-17.5Q3.05-25.85 7.63-30.43 12.2-35 20.25-35L20.25-35 23.5-35 23.5-30.6 19.65-30.6Q14.1-30.6 11.13-26.93 8.15-23.25 8.05-17.5L8.05-17.5Q8.15-11.75 11.13-8.08 14.1-4.4 19.65-4.4L19.65-4.4 23.5-4.4 23.5 0 20.25 0Q12.2 0 7.63-4.58 3.05-9.15 3-17.5ZM32-20.85L32-20.85Q35.5-24.5 40.75-24.5L40.75-24.5Q43.3-24.5 45.52-23.53 47.75-22.55 49.42-20.85 51.1-19.15 52.05-16.88 53-14.6 53-12L53-12Q53-9.4 52.07-7.13 51.15-4.85 49.5-3.15 47.85-1.45 45.6-0.48 43.35 0.5 40.75 0.5L40.75 0.5Q38.1 0.5 35.87-0.48 33.65-1.45 32-3.15 30.35-4.85 29.42-7.13 28.5-9.4 28.5-12L28.5-12Q28.5-17.3 32-20.85ZM40.75-20.3L40.75-20.3Q37.25-20.3 35.12-18 33-15.7 33-12 33-8.3 35.12-6 37.25-3.7 40.75-3.7L40.75-3.7Q44.3-3.7 46.4-6.03 48.5-8.35 48.5-12 48.5-15.65 46.4-17.98 44.3-20.3 40.75-20.3ZM69.4 0L69.4 0Q64.5 0 61-3.3 57.5-6.6 57.5-11.75L57.5-11.75Q57.5-16.95 61.02-20.48 64.55-24 69.75-24L69.75-24 81.5-24 81.5-0.7Q81.5 1.55 80.92 3.35 80.34 5.15 79.3 6.4 78.25 7.65 77.4 8.35 76.55 9.05 75.34 9.8L75.34 9.8Q72.25 11.4 67.8 11.4L67.8 11.4 62.2 11.4 62.2 7.2 67.34 7.2Q71.75 7.2 73.59 6.1L73.59 6.1Q77 4.2 77-0.2L77-0.2 77-19.8 69.75-19.8Q66.2-19.8 64.09-17.6 62-15.4 62-11.75L62-11.75Q62-8.25 64.17-6.23 66.34-4.2 69.4-4.2L69.4-4.2Q72.7-4.2 75.2-6L75.2-6 75.2-1.5Q72.5 0 69.4 0ZM87.99 0L87.99-24 96.64-24Q102.19-24 104.59-22.35L104.59-22.35Q106.74-20.9 107.32-18.88 107.89-16.85 107.89-13.55L107.89-13.55 107.89 0 103.49 0 103.49-13.5Q103.49-14.4 103.44-15.03 103.39-15.65 103.09-16.63 102.79-17.6 102.24-18.23 101.69-18.85 100.64-19.33 99.59-19.8 98.09-19.8L98.09-19.8 92.39-19.8 92.39 0 87.99 0ZM120.39-24L120.39 0 115.99 0 115.99-19.8 111.89-19.8 113.89-24 120.39-24ZM115.79-29L115.79-29Q115.14-29.85 115.14-30.85 115.14-31.85 115.79-32.68 116.44-33.5 117.79-33.5 119.14-33.5 119.79-32.68 120.44-31.85 120.44-30.85 120.44-29.85 119.79-29.03 119.14-28.2 117.79-28.2 116.44-28.2 115.79-29ZM129.04-19.8L124.59-19.8 133.54-28.75 133.54-24 140.29-24 140.29-19.8 133.54-19.8 133.54-9.5Q133.54-7.75 134.11-6.6 134.69-5.45 135.79-4.98 136.89-4.5 137.86-4.35 138.84-4.2 140.29-4.2L140.29-4.2 140.29 0Q134.54 0 131.79-2.2 129.04-4.4 129.04-9.5L129.04-9.5 129.04-19.8Z" fill="#affc41" data-fill-palette-color="primary"></path></g></svg></g></svg></g></svg></g></svg></g></svg></g></svg></g><defs></defs></svg><rect width="395.52" height="133.6644428259286" fill="none" stroke="none" visibility="hidden"></rect></g></svg></g></svg>